<svg width="562" height="842" viewBox="0 0 562 842" fill="none" xmlns="http://www.w3.org/2000/svg">
<path d="M-41.149 324.267C-29.6117 315.105 -24.352 310.863 -25.37 311.542C7.88467 284.056 34.0133 261.49 53.016 243.845C72.358 226.2 88.646 207.706 101.88 188.364C115.114 169.022 121.731 150.189 121.731 131.865C121.731 117.952 118.507 107.094 112.06 99.289C105.613 91.4843 95.9417 87.582 83.047 87.582C70.1523 87.582 59.9723 92.5023 52.507 102.343C45.381 111.844 41.818 125.418 41.818 143.063H-42.167C-41.4883 114.22 -35.3803 90.127 -23.843 70.785C-11.9663 51.443 3.47334 37.191 22.476 28.029C41.818 18.867 63.196 14.286 86.61 14.286C126.991 14.286 157.361 24.6356 177.721 45.335C198.42 66.0343 208.77 93.0113 208.77 126.266C208.77 162.575 196.384 196.338 171.613 227.557C146.842 258.436 115.284 288.637 76.939 318.159H214.369V388.91H-41.149V324.267ZM252.691 203.125C252.691 144.76 263.889 98.78 286.285 65.186C309.02 31.592 345.499 14.795 395.72 14.795C445.941 14.795 482.25 31.592 504.646 65.186C527.381 98.78 538.749 144.76 538.749 203.125C538.749 262.169 527.381 308.488 504.646 342.082C482.25 375.676 445.941 392.473 395.72 392.473C345.499 392.473 309.02 375.676 286.285 342.082C263.889 308.488 252.691 262.169 252.691 203.125ZM453.237 203.125C453.237 168.852 449.504 142.554 442.039 124.23C434.574 105.567 419.134 96.235 395.72 96.235C372.306 96.235 356.866 105.567 349.401 124.23C341.936 142.554 338.203 168.852 338.203 203.125C338.203 226.2 339.56 245.372 342.275 260.642C344.99 275.573 350.419 287.789 358.563 297.29C367.046 306.452 379.432 311.033 395.72 311.033C412.008 311.033 424.224 306.452 432.368 297.29C440.851 287.789 446.45 275.573 449.165 260.642C451.88 245.372 453.237 226.2 453.237 203.125ZM-41.149 777.267C-29.6117 768.105 -24.352 763.863 -25.37 764.542C7.88467 737.056 34.0133 714.49 53.016 696.845C72.358 679.2 88.646 660.706 101.88 641.364C115.114 622.022 121.731 603.189 121.731 584.865C121.731 570.952 118.507 560.094 112.06 552.289C105.613 544.484 95.9417 540.582 83.047 540.582C70.1523 540.582 59.9723 545.502 52.507 555.343C45.381 564.844 41.818 578.418 41.818 596.063H-42.167C-41.4883 567.22 -35.3803 543.127 -23.843 523.785C-11.9663 504.443 3.47334 490.191 22.476 481.029C41.818 471.867 63.196 467.286 86.61 467.286C126.991 467.286 157.361 477.636 177.721 498.335C198.42 519.034 208.77 546.011 208.77 579.266C208.77 615.575 196.384 649.338 171.613 680.557C146.842 711.436 115.284 741.637 76.939 771.159H214.369V841.91H-41.149V777.267ZM249.637 777.267C261.174 768.105 266.434 763.863 265.416 764.542C298.671 737.056 324.799 714.49 343.802 696.845C363.144 679.2 379.432 660.706 392.666 641.364C405.9 622.022 412.517 603.189 412.517 584.865C412.517 570.952 409.293 560.094 402.846 552.289C396.399 544.484 386.728 540.582 373.833 540.582C360.938 540.582 350.758 545.502 343.293 555.343C336.167 564.844 332.604 578.418 332.604 596.063H248.619C249.298 567.22 255.406 543.127 266.943 523.785C278.82 504.443 294.259 490.191 313.262 481.029C332.604 471.867 353.982 467.286 377.396 467.286C417.777 467.286 448.147 477.636 468.507 498.335C489.206 519.034 499.556 546.011 499.556 579.266C499.556 615.575 487.17 649.338 462.399 680.557C437.628 711.436 406.07 741.637 367.725 771.159H505.155V841.91H249.637V777.267Z" fill="#FFFAFA" fill-opacity="0.15"/>
</svg>
