<svg width="38" height="38" viewBox="0 0 38 38" fill="none" xmlns="http://www.w3.org/2000/svg">
<path d="M1.72925 27.8469C1.72925 31.3203 7.4812 33.9403 15.1109 33.9403C15.8382 33.9403 16.5656 33.918 17.2707 33.866C17.7679 33.8289 18.1464 33.3985 18.1167 32.8938C18.0796 32.3891 17.6492 32.018 17.1445 32.0477C16.4765 32.0922 15.7937 32.1219 15.1109 32.1219C8.29761 32.1219 3.54761 29.8656 3.54761 27.8469V24.0617C5.82612 25.8504 10.0566 27.0008 15.1109 27.0008C15.571 27.0008 16.0312 26.9934 16.4914 26.9711C16.996 26.9488 17.382 26.5258 17.3597 26.0211C17.3375 25.5164 16.9144 25.1305 16.4097 25.1528C15.9792 25.175 15.5414 25.1824 15.1109 25.1824C8.29761 25.1824 3.54761 22.9262 3.54761 20.9074V17.1297C5.82612 18.9184 10.0566 20.0688 15.1109 20.0688C22.7406 20.0688 28.4925 17.4489 28.4925 13.9754V7.02854C28.4925 3.5551 22.7406 0.935181 15.1109 0.935181C7.4812 0.935181 1.72925 3.5551 1.72925 7.02854V27.8469ZM15.1109 18.243C8.29761 18.243 3.54761 15.9867 3.54761 13.968V10.1828C5.82612 11.9715 10.0566 13.1219 15.1109 13.1219C20.1652 13.1219 24.3957 11.9715 26.6742 10.1828V13.968C26.6816 15.9942 21.9316 18.243 15.1109 18.243ZM15.1109 2.74612C21.9242 2.74612 26.6742 5.00237 26.6742 7.02112C26.6742 9.03987 21.9242 11.2961 15.1109 11.2961C8.29761 11.2961 3.54761 9.04729 3.54761 7.02854C3.54761 5.00979 8.29761 2.74612 15.1109 2.74612Z" fill="white"/>
<path d="M18.9036 28.3887C18.9036 33.1758 22.8001 37.0723 27.5872 37.0723C32.3743 37.0723 36.2708 33.1758 36.2708 28.3887C36.2708 23.6016 32.3743 19.7051 27.5872 19.7051C22.8001 19.7051 18.9036 23.5941 18.9036 28.3887ZM34.4524 28.3887C34.4524 32.1738 31.3723 35.2539 27.5872 35.2539C23.802 35.2539 20.7219 32.1738 20.7219 28.3887C20.7219 24.6035 23.802 21.5234 27.5872 21.5234C31.3723 21.5234 34.4524 24.5961 34.4524 28.3887Z" fill="white"/>
<path d="M25.6276 28.025C25.2713 27.6688 24.6999 27.6688 24.3436 28.025C23.9874 28.3813 23.9874 28.9528 24.3436 29.309L25.8799 30.8528C26.0581 31.0309 26.2881 31.1199 26.5256 31.1199C26.7557 31.1199 26.9858 31.0309 27.1639 30.8528L30.8303 27.2012C31.1866 26.8449 31.1866 26.2735 30.8303 25.9172C30.4741 25.561 29.9026 25.561 29.5464 25.9172L26.5256 28.9231L25.6276 28.025Z" fill="white"/>
</svg>
